<svg width="436" height="53" viewBox="0 0 436 53" fill="none" xmlns="http://www.w3.org/2000/svg">
<path d="M54.984 43V9.39997H69.528C72.536 9.39997 75.128 9.89597 77.304 10.888C79.48 11.848 81.16 13.24 82.344 15.064C83.528 16.888 84.12 19.064 84.12 21.592C84.12 24.088 83.528 26.248 82.344 28.072C81.16 29.896 79.48 31.304 77.304 32.296C75.128 33.256 72.536 33.736 69.528 33.736H59.304L62.76 30.232V43H54.984ZM62.76 31.096L59.304 27.4H69.096C71.496 27.4 73.288 26.888 74.472 25.864C75.656 24.84 76.248 23.416 76.248 21.592C76.248 19.736 75.656 18.296 74.472 17.272C73.288 16.248 71.496 15.736 69.096 15.736H59.304L62.76 12.04V31.096Z" fill="white"/>
<path d="M126.742 37.72L126.934 28.6L138.982 17.176H147.91L136.342 28.936L132.454 32.104L126.742 37.72ZM120.55 43V7.38397H128.038V43H120.55ZM139.798 43L131.062 32.152L135.766 26.344L148.87 43H139.798Z" fill="white"/>
<path d="M163.975 43.384C161.031 43.384 158.439 42.808 156.199 41.656C153.991 40.504 152.279 38.936 151.063 36.952C149.847 34.936 149.239 32.648 149.239 30.088C149.239 27.496 149.831 25.208 151.015 23.224C152.231 21.208 153.879 19.64 155.959 18.52C158.039 17.368 160.391 16.792 163.015 16.792C165.543 16.792 167.815 17.336 169.831 18.424C171.879 19.48 173.495 21.016 174.679 23.032C175.863 25.016 176.455 27.4 176.455 30.184C176.455 30.472 176.439 30.808 176.407 31.192C176.375 31.544 176.343 31.88 176.311 32.2H155.335V27.832H172.375L169.495 29.128C169.495 27.784 169.223 26.616 168.679 25.624C168.135 24.632 167.383 23.864 166.423 23.32C165.463 22.744 164.343 22.456 163.063 22.456C161.783 22.456 160.647 22.744 159.655 23.32C158.695 23.864 157.943 24.648 157.399 25.672C156.855 26.664 156.583 27.848 156.583 29.224V30.376C156.583 31.784 156.887 33.032 157.495 34.12C158.135 35.176 159.015 35.992 160.135 36.568C161.287 37.112 162.631 37.384 164.167 37.384C165.543 37.384 166.743 37.176 167.767 36.76C168.823 36.344 169.783 35.72 170.647 34.888L174.631 39.208C173.447 40.552 171.959 41.592 170.167 42.328C168.375 43.032 166.311 43.384 163.975 43.384Z" fill="white"/>
<path d="M181.44 43V17.176H188.592V24.472L187.584 22.36C188.352 20.536 189.584 19.16 191.28 18.232C192.976 17.272 195.04 16.792 197.472 16.792V23.704C197.152 23.672 196.864 23.656 196.608 23.656C196.352 23.624 196.08 23.608 195.792 23.608C193.744 23.608 192.08 24.2 190.8 25.384C189.552 26.536 188.928 28.344 188.928 30.808V43H181.44Z" fill="white"/>
<path d="M216.234 43V9.39997H230.778C233.786 9.39997 236.378 9.89597 238.554 10.888C240.73 11.848 242.41 13.24 243.594 15.064C244.778 16.888 245.37 19.064 245.37 21.592C245.37 24.088 244.778 26.248 243.594 28.072C242.41 29.896 240.73 31.304 238.554 32.296C236.378 33.256 233.786 33.736 230.778 33.736H220.554L224.01 30.232V43H216.234ZM224.01 31.096L220.554 27.4H230.346C232.746 27.4 234.538 26.888 235.722 25.864C236.906 24.84 237.498 23.416 237.498 21.592C237.498 19.736 236.906 18.296 235.722 17.272C234.538 16.248 232.746 15.736 230.346 15.736H220.554L224.01 12.04V31.096Z" fill="white"/>
<path d="M250.862 43V7.38397H258.35V43H250.862Z" fill="white"/>
<path d="M281.14 43V37.96L280.66 36.856V27.832C280.66 26.232 280.164 24.984 279.172 24.088C278.212 23.192 276.724 22.744 274.708 22.744C273.332 22.744 271.972 22.968 270.628 23.416C269.316 23.832 268.196 24.408 267.268 25.144L264.58 19.912C265.988 18.92 267.684 18.152 269.668 17.608C271.652 17.064 273.668 16.792 275.716 16.792C279.652 16.792 282.708 17.72 284.884 19.576C287.06 21.432 288.148 24.328 288.148 28.264V43H281.14ZM273.268 43.384C271.252 43.384 269.524 43.048 268.084 42.376C266.644 41.672 265.54 40.728 264.772 39.544C264.004 38.36 263.62 37.032 263.62 35.56C263.62 34.024 263.988 32.68 264.724 31.528C265.492 30.376 266.692 29.48 268.324 28.84C269.956 28.168 272.084 27.832 274.708 27.832H281.572V32.2H275.524C273.764 32.2 272.548 32.488 271.876 33.064C271.236 33.64 270.916 34.36 270.916 35.224C270.916 36.184 271.284 36.952 272.02 37.528C272.788 38.072 273.828 38.344 275.14 38.344C276.388 38.344 277.508 38.056 278.5 37.48C279.492 36.872 280.212 35.992 280.66 34.84L281.812 38.296C281.268 39.96 280.276 41.224 278.836 42.088C277.396 42.952 275.54 43.384 273.268 43.384Z" fill="white"/>
<path d="M310.621 16.792C312.669 16.792 314.493 17.208 316.093 18.04C317.725 18.84 319.005 20.088 319.933 21.784C320.861 23.448 321.325 25.592 321.325 28.216V43H313.837V29.368C313.837 27.288 313.373 25.752 312.445 24.76C311.549 23.768 310.269 23.272 308.605 23.272C307.421 23.272 306.349 23.528 305.389 24.04C304.461 24.52 303.725 25.272 303.181 26.296C302.669 27.32 302.413 28.632 302.413 30.232V43H294.925V17.176H302.077V24.328L300.733 22.168C301.661 20.44 302.989 19.112 304.717 18.184C306.445 17.256 308.413 16.792 310.621 16.792Z" fill="white"/>
<path d="M343.808 16.792C345.856 16.792 347.68 17.208 349.28 18.04C350.912 18.84 352.192 20.088 353.12 21.784C354.048 23.448 354.512 25.592 354.512 28.216V43H347.024V29.368C347.024 27.288 346.56 25.752 345.632 24.76C344.736 23.768 343.456 23.272 341.792 23.272C340.608 23.272 339.536 23.528 338.576 24.04C337.648 24.52 336.912 25.272 336.368 26.296C335.856 27.32 335.6 28.632 335.6 30.232V43H328.112V17.176H335.264V24.328L333.92 22.168C334.848 20.44 336.176 19.112 337.904 18.184C339.632 17.256 341.6 16.792 343.808 16.792Z" fill="white"/>
<path d="M361.3 43V17.176H368.788V43H361.3Z" fill="white"/>
<path d="M391.433 16.792C393.481 16.792 395.305 17.208 396.905 18.04C398.537 18.84 399.817 20.088 400.745 21.784C401.673 23.448 402.137 25.592 402.137 28.216V43H394.649V29.368C394.649 27.288 394.185 25.752 393.257 24.76C392.361 23.768 391.081 23.272 389.417 23.272C388.233 23.272 387.161 23.528 386.201 24.04C385.273 24.52 384.537 25.272 383.993 26.296C383.481 27.32 383.225 28.632 383.225 30.232V43H375.737V17.176H382.889V24.328L381.545 22.168C382.473 20.44 383.801 19.112 385.529 18.184C387.257 17.256 389.225 16.792 391.433 16.792Z" fill="white"/>
<path d="M421.256 52.696C418.824 52.696 416.472 52.392 414.2 51.784C411.96 51.208 410.088 50.328 408.584 49.144L411.56 43.768C412.648 44.664 414.024 45.368 415.688 45.88C417.384 46.424 419.048 46.696 420.68 46.696C423.336 46.696 425.256 46.104 426.44 44.92C427.656 43.736 428.264 41.976 428.264 39.64V35.752L428.744 29.272L428.648 22.744V17.176H435.752V38.68C435.752 43.48 434.504 47.016 432.008 49.288C429.512 51.56 425.928 52.696 421.256 52.696ZM420.104 41.752C417.704 41.752 415.528 41.24 413.576 40.216C411.656 39.16 410.104 37.704 408.92 35.848C407.768 33.96 407.192 31.768 407.192 29.272C407.192 26.744 407.768 24.552 408.92 22.696C410.104 20.808 411.656 19.352 413.576 18.328C415.528 17.304 417.704 16.792 420.104 16.792C422.28 16.792 424.2 17.24 425.864 18.136C427.528 19 428.824 20.36 429.752 22.216C430.68 24.04 431.144 26.392 431.144 29.272C431.144 32.12 430.68 34.472 429.752 36.328C428.824 38.152 427.528 39.512 425.864 40.408C424.2 41.304 422.28 41.752 420.104 41.752ZM421.592 35.608C422.904 35.608 424.072 35.352 425.096 34.84C426.12 34.296 426.92 33.544 427.496 32.584C428.072 31.624 428.36 30.52 428.36 29.272C428.36 27.992 428.072 26.888 427.496 25.96C426.92 25 426.12 24.264 425.096 23.752C424.072 23.208 422.904 22.936 421.592 22.936C420.28 22.936 419.112 23.208 418.088 23.752C417.064 24.264 416.248 25 415.64 25.96C415.064 26.888 414.776 27.992 414.776 29.272C414.776 30.52 415.064 31.624 415.64 32.584C416.248 33.544 417.064 34.296 418.088 34.84C419.112 35.352 420.28 35.608 421.592 35.608Z" fill="white"/>
<path d="M361 7.29611L365 0L369 7.29611L365 14L361 7.29611Z" fill="#845EC2"/>
<path d="M104 16L96 22L104 27.5V25C109.2 30.2 106.167 35.5 104 37.5L107.5 42.5C109.833 41.8333 114.5 38.6 114.5 31C114.5 23.4 107.5 19.1667 104 18V16Z" fill="white" stroke="white"/>
<path d="M96.5 46.5L104.5 40.5L96.5 35V37.5C91.3 32.3 94.3333 27 96.5 25L93 20C90.6667 20.6667 86 23.9 86 31.5C86 39.1 93 43.3333 96.5 44.5V46.5Z" fill="white" stroke="white"/>
<rect x="0.5" y="6.5" width="41" height="41" rx="11.5" fill="white" stroke="white"/>
<path d="M25 12L17 18L25 23.5V21C30.2 26.2 27.1667 31.5 25 33.5L28.5 38.5C30.8333 37.8333 35.5 34.6 35.5 27C35.5 19.4 28.5 15.1667 25 14V12Z" fill="#333740" stroke="white"/>
<path d="M17.5 42.5L25.5 36.5L17.5 31V33.5C12.3 28.3 15.3333 23 17.5 21L14 16C11.6667 16.6667 7 19.9 7 27.5C7 35.1 14 39.3333 17.5 40.5V42.5Z" fill="#333740" stroke="white"/>
</svg>
