<svg width="382" height="53" viewBox="0 0 382 53" fill="none" xmlns="http://www.w3.org/2000/svg">
<path d="M0.984009 43V9.39997H15.528C18.536 9.39997 21.128 9.89597 23.304 10.888C25.48 11.848 27.16 13.24 28.344 15.064C29.528 16.888 30.12 19.064 30.12 21.592C30.12 24.088 29.528 26.248 28.344 28.072C27.16 29.896 25.48 31.304 23.304 32.296C21.128 33.256 18.536 33.736 15.528 33.736H5.30401L8.76001 30.232V43H0.984009ZM8.76001 31.096L5.30401 27.4H15.096C17.496 27.4 19.288 26.888 20.472 25.864C21.656 24.84 22.248 23.416 22.248 21.592C22.248 19.736 21.656 18.296 20.472 17.272C19.288 16.248 17.496 15.736 15.096 15.736H5.30401L8.76001 12.04V31.096Z" fill="#333740"/>
<path d="M72.7418 37.72L72.9338 28.6L84.9818 17.176H93.9098L82.3418 28.936L78.4538 32.104L72.7418 37.72ZM66.5498 43V7.38397H74.0378V43H66.5498ZM85.7978 43L77.0618 32.152L81.7658 26.344L94.8698 43H85.7978Z" fill="#333740"/>
<path d="M109.975 43.384C107.031 43.384 104.439 42.808 102.199 41.656C99.9911 40.504 98.2791 38.936 97.0631 36.952C95.8471 34.936 95.2391 32.648 95.2391 30.088C95.2391 27.496 95.8311 25.208 97.0151 23.224C98.2311 21.208 99.8791 19.64 101.959 18.52C104.039 17.368 106.391 16.792 109.015 16.792C111.543 16.792 113.815 17.336 115.831 18.424C117.879 19.48 119.495 21.016 120.679 23.032C121.863 25.016 122.455 27.4 122.455 30.184C122.455 30.472 122.439 30.808 122.407 31.192C122.375 31.544 122.343 31.88 122.311 32.2H101.335V27.832H118.375L115.495 29.128C115.495 27.784 115.223 26.616 114.679 25.624C114.135 24.632 113.383 23.864 112.423 23.32C111.463 22.744 110.343 22.456 109.063 22.456C107.783 22.456 106.647 22.744 105.655 23.32C104.695 23.864 103.943 24.648 103.399 25.672C102.855 26.664 102.583 27.848 102.583 29.224V30.376C102.583 31.784 102.887 33.032 103.495 34.12C104.135 35.176 105.015 35.992 106.135 36.568C107.287 37.112 108.631 37.384 110.167 37.384C111.543 37.384 112.743 37.176 113.767 36.76C114.823 36.344 115.783 35.72 116.647 34.888L120.631 39.208C119.447 40.552 117.959 41.592 116.167 42.328C114.375 43.032 112.311 43.384 109.975 43.384Z" fill="#333740"/>
<path d="M127.44 43V17.176H134.592V24.472L133.584 22.36C134.352 20.536 135.584 19.16 137.28 18.232C138.976 17.272 141.04 16.792 143.472 16.792V23.704C143.152 23.672 142.864 23.656 142.608 23.656C142.352 23.624 142.08 23.608 141.792 23.608C139.744 23.608 138.08 24.2 136.8 25.384C135.552 26.536 134.928 28.344 134.928 30.808V43H127.44Z" fill="#333740"/>
<path d="M162.234 43V9.39997H176.778C179.786 9.39997 182.378 9.89597 184.554 10.888C186.73 11.848 188.41 13.24 189.594 15.064C190.778 16.888 191.37 19.064 191.37 21.592C191.37 24.088 190.778 26.248 189.594 28.072C188.41 29.896 186.73 31.304 184.554 32.296C182.378 33.256 179.786 33.736 176.778 33.736H166.554L170.01 30.232V43H162.234ZM170.01 31.096L166.554 27.4H176.346C178.746 27.4 180.538 26.888 181.722 25.864C182.906 24.84 183.498 23.416 183.498 21.592C183.498 19.736 182.906 18.296 181.722 17.272C180.538 16.248 178.746 15.736 176.346 15.736H166.554L170.01 12.04V31.096Z" fill="#333740"/>
<path d="M196.862 43V7.38397H204.35V43H196.862Z" fill="#333740"/>
<path d="M227.14 43V37.96L226.66 36.856V27.832C226.66 26.232 226.164 24.984 225.172 24.088C224.212 23.192 222.724 22.744 220.708 22.744C219.332 22.744 217.972 22.968 216.628 23.416C215.316 23.832 214.196 24.408 213.268 25.144L210.58 19.912C211.988 18.92 213.684 18.152 215.668 17.608C217.652 17.064 219.668 16.792 221.716 16.792C225.652 16.792 228.708 17.72 230.884 19.576C233.06 21.432 234.148 24.328 234.148 28.264V43H227.14ZM219.268 43.384C217.252 43.384 215.524 43.048 214.084 42.376C212.644 41.672 211.54 40.728 210.772 39.544C210.004 38.36 209.62 37.032 209.62 35.56C209.62 34.024 209.988 32.68 210.724 31.528C211.492 30.376 212.692 29.48 214.324 28.84C215.956 28.168 218.084 27.832 220.708 27.832H227.572V32.2H221.524C219.764 32.2 218.548 32.488 217.876 33.064C217.236 33.64 216.916 34.36 216.916 35.224C216.916 36.184 217.284 36.952 218.02 37.528C218.788 38.072 219.828 38.344 221.14 38.344C222.388 38.344 223.508 38.056 224.5 37.48C225.492 36.872 226.212 35.992 226.66 34.84L227.812 38.296C227.268 39.96 226.276 41.224 224.836 42.088C223.396 42.952 221.54 43.384 219.268 43.384Z" fill="#333740"/>
<path d="M256.621 16.792C258.669 16.792 260.493 17.208 262.093 18.04C263.725 18.84 265.005 20.088 265.933 21.784C266.861 23.448 267.325 25.592 267.325 28.216V43H259.837V29.368C259.837 27.288 259.373 25.752 258.445 24.76C257.549 23.768 256.269 23.272 254.605 23.272C253.421 23.272 252.349 23.528 251.389 24.04C250.461 24.52 249.725 25.272 249.181 26.296C248.669 27.32 248.413 28.632 248.413 30.232V43H240.925V17.176H248.077V24.328L246.733 22.168C247.661 20.44 248.989 19.112 250.717 18.184C252.445 17.256 254.413 16.792 256.621 16.792Z" fill="#333740"/>
<path d="M289.808 16.792C291.856 16.792 293.68 17.208 295.28 18.04C296.912 18.84 298.192 20.088 299.12 21.784C300.048 23.448 300.512 25.592 300.512 28.216V43H293.024V29.368C293.024 27.288 292.56 25.752 291.632 24.76C290.736 23.768 289.456 23.272 287.792 23.272C286.608 23.272 285.536 23.528 284.576 24.04C283.648 24.52 282.912 25.272 282.368 26.296C281.856 27.32 281.6 28.632 281.6 30.232V43H274.112V17.176H281.264V24.328L279.92 22.168C280.848 20.44 282.176 19.112 283.904 18.184C285.632 17.256 287.6 16.792 289.808 16.792Z" fill="#333740"/>
<path d="M307.3 43V17.176H314.788V43H307.3Z" fill="#333740"/>
<path d="M337.433 16.792C339.481 16.792 341.305 17.208 342.905 18.04C344.537 18.84 345.817 20.088 346.745 21.784C347.673 23.448 348.137 25.592 348.137 28.216V43H340.649V29.368C340.649 27.288 340.185 25.752 339.257 24.76C338.361 23.768 337.081 23.272 335.417 23.272C334.233 23.272 333.161 23.528 332.201 24.04C331.273 24.52 330.537 25.272 329.993 26.296C329.481 27.32 329.225 28.632 329.225 30.232V43H321.737V17.176H328.889V24.328L327.545 22.168C328.473 20.44 329.801 19.112 331.529 18.184C333.257 17.256 335.225 16.792 337.433 16.792Z" fill="#333740"/>
<path d="M367.256 52.696C364.824 52.696 362.472 52.392 360.2 51.784C357.96 51.208 356.088 50.328 354.584 49.144L357.56 43.768C358.648 44.664 360.024 45.368 361.688 45.88C363.384 46.424 365.048 46.696 366.68 46.696C369.336 46.696 371.256 46.104 372.44 44.92C373.656 43.736 374.264 41.976 374.264 39.64V35.752L374.744 29.272L374.648 22.744V17.176H381.752V38.68C381.752 43.48 380.504 47.016 378.008 49.288C375.512 51.56 371.928 52.696 367.256 52.696ZM366.104 41.752C363.704 41.752 361.528 41.24 359.576 40.216C357.656 39.16 356.104 37.704 354.92 35.848C353.768 33.96 353.192 31.768 353.192 29.272C353.192 26.744 353.768 24.552 354.92 22.696C356.104 20.808 357.656 19.352 359.576 18.328C361.528 17.304 363.704 16.792 366.104 16.792C368.28 16.792 370.2 17.24 371.864 18.136C373.528 19 374.824 20.36 375.752 22.216C376.68 24.04 377.144 26.392 377.144 29.272C377.144 32.12 376.68 34.472 375.752 36.328C374.824 38.152 373.528 39.512 371.864 40.408C370.2 41.304 368.28 41.752 366.104 41.752ZM367.592 35.608C368.904 35.608 370.072 35.352 371.096 34.84C372.12 34.296 372.92 33.544 373.496 32.584C374.072 31.624 374.36 30.52 374.36 29.272C374.36 27.992 374.072 26.888 373.496 25.96C372.92 25 372.12 24.264 371.096 23.752C370.072 23.208 368.904 22.936 367.592 22.936C366.28 22.936 365.112 23.208 364.088 23.752C363.064 24.264 362.248 25 361.64 25.96C361.064 26.888 360.776 27.992 360.776 29.272C360.776 30.52 361.064 31.624 361.64 32.584C362.248 33.544 363.064 34.296 364.088 34.84C365.112 35.352 366.28 35.608 367.592 35.608Z" fill="#333740"/>
<path d="M307 7.29611L311 0L315 7.29611L311 14L307 7.29611Z" fill="#845EC2"/>
<line x1="51.4631" y1="27.8437" x2="40.4631" y2="20.8437" stroke="white" stroke-width="2"/>
<line x1="52.3861" y1="39.7894" x2="43.3861" y2="32.7894" stroke="white" stroke-width="2"/>
<path d="M50 16L42 22L50 27.5V25C55.2 30.2 52.1667 35.5 50 37.5L53.5 42.5C55.8333 41.8333 60.5 38.6 60.5 31C60.5 23.4 53.5 19.1667 50 18V16Z" fill="#333740" stroke="#333740"/>
<path d="M42.5 46.5L50.5 40.5L42.5 35V37.5C37.3 32.3 40.3333 27 42.5 25L39 20C36.6667 20.6667 32 23.9 32 31.5C32 39.1 39 43.3333 42.5 44.5V46.5Z" fill="#333740" stroke="#333740"/>
</svg>
