<svg width="42" height="42" viewBox="0 0 42 42" fill="none" xmlns="http://www.w3.org/2000/svg">
<rect width="42" height="42" rx="12" fill="#333740"/>
<path d="M25 6L17 12L25 17.5V15C30.2 20.2 27.1667 25.5 25 27.5L28.5 32.5C30.8333 31.8333 35.5 28.6 35.5 21C35.5 13.4 28.5 9.16667 25 8V6Z" fill="white" stroke="#333740"/>
<path d="M17.5 36.5L25.5 30.5L17.5 25V27.5C12.3 22.3 15.3333 17 17.5 15L14 10C11.6667 10.6667 7 13.9 7 21.5C7 29.1 14 33.3333 17.5 34.5V36.5Z" fill="white" stroke="#333740"/>
</svg>
